<svg width="40" height="40" viewBox="0 0 40 40" fill="none" xmlns="http://www.w3.org/2000/svg">
<g clip-path="url(#clip0_6_18)">
<path d="M18.3828 40C18.1719 40 17.9609 39.9609 17.7656 39.8906C16.9766 39.6016 16.4922 38.8125 16.5859 37.9844L17.9844 25.0937H7.27344C6.26562 25.0937 5.45312 24.2812 5.45312 23.2812C5.45312 22.9141 5.5625 22.5625 5.76562 22.2578L20.1094 0.79687C20.5781 0.109369 21.4531 -0.179693 22.2344 0.10937C22.9844 0.39062 23.4687 1.12499 23.4141 1.92968L22.0156 14.9141H32.7266C33.7344 14.9141 34.5469 15.7266 34.5469 16.7266C34.5469 17.0937 34.4375 17.4453 34.2344 17.75L19.8906 39.2031C19.5547 39.7031 18.9844 40 18.3828 40Z" fill="#D9D9D9"/>
</g>
<defs>
<clipPath id="clip0_6_18">
<rect width="40" height="40" fill="white"/>
</clipPath>
</defs>
</svg>
