<svg width="55" height="55" viewBox="0 0 55 55" fill="none" xmlns="http://www.w3.org/2000/svg">
<path d="M42.8834 32.5129L42.8841 32.5107C43.3474 31.0165 44.9271 30.182 46.4149 30.6433C47.9092 31.1066 48.7437 32.6863 48.2823 34.1741L48.2822 34.1746C46.78 39.0289 43.6362 43.2138 39.4057 46.0038L39.3882 46.0153C37.4959 47.2633 35.4682 48.1919 33.3953 48.792C31.3203 49.3927 29.1802 49.6763 27.0765 49.6492L27.0738 49.6491C22.8443 49.6058 18.6781 48.3454 15.1191 45.9675L15.1165 45.9658C13.6669 45.0037 12.3007 43.8416 11.0857 42.5083L10.2864 41.6312L9.55747 42.5676C8.89248 43.422 7.81335 43.8624 6.73287 43.6421C5.1942 43.3132 4.21064 41.8075 4.52138 40.2932L5.88415 33.6519C6.21291 32.1131 7.71869 31.1294 9.23311 31.4402L15.8781 32.8037C17.3924 33.1144 18.3874 34.6103 18.0686 36.1634C17.8902 37.0333 17.3164 37.7342 16.5525 38.1245L15.2718 38.7788L16.3312 39.7515C16.3578 39.776 16.3862 39.8023 16.4161 39.8299C16.5751 39.977 16.7765 40.1634 16.9821 40.3257C18.2123 41.336 19.6037 42.1502 21.0347 42.7482L21.0365 42.7489C23.9427 43.9568 27.1699 44.3142 30.2887 43.7293C32.3696 43.3484 34.4039 42.5401 36.2803 41.3026L36.2978 41.2911C39.4484 39.2133 41.759 36.111 42.8834 32.5129Z" fill="#D9D9D9" stroke="#1D1D1D" stroke-width="2"/>
<path d="M43.4683 12.8688L44.2829 13.7626L45.0078 12.7946C45.6391 11.9516 46.7439 11.4851 47.8561 11.7119C49.3947 12.0408 50.3783 13.5465 50.0676 15.0608L48.704 21.7058C48.5534 22.4401 48.1117 23.1005 47.5001 23.5038C46.8886 23.9071 46.1077 24.053 45.3733 23.9023L38.7352 22.5402C38.7342 22.54 38.7331 22.5398 38.7321 22.5395C37.1953 22.2112 36.2121 20.709 36.5191 19.1966C36.7122 18.3199 37.2734 17.6227 37.9996 17.2536L39.2599 16.6129L38.2361 15.638C38.0253 15.4373 37.8152 15.2439 37.5694 15.0413L37.5686 15.0406C36.3364 14.0273 34.9419 13.2107 33.5077 12.6114L33.506 12.6107C30.5991 11.4025 27.371 11.0452 24.2515 11.6307C22.156 12.0229 20.1222 12.8303 18.2447 14.0685C15.0759 16.1582 12.7409 19.3024 11.6283 22.9207L11.6282 22.9206L11.6249 22.9318C11.187 24.4172 9.59963 25.2653 8.10969 24.8034L8.10972 24.8033L8.09632 24.7993C6.61094 24.3614 5.76278 22.774 6.22475 21.2841L6.22476 21.2841L6.22596 21.2801C7.72315 16.3804 10.8726 12.1679 15.1367 9.35581L15.1369 9.35575L15.137 9.35568L15.1371 9.35561L15.1372 9.35555L15.1373 9.35548L15.1374 9.35541L15.1375 9.35535L15.1376 9.35528L15.1377 9.35522L15.1378 9.35515L15.1379 9.35509L15.138 9.35502L15.138 9.35496L15.1381 9.35489L15.1382 9.35483L15.1383 9.35477L15.1384 9.3547L15.1385 9.35464L15.1386 9.35458L15.1387 9.35451L15.1388 9.35445L15.1389 9.35439L15.139 9.35433L15.1391 9.35427L15.1392 9.35421L15.1393 9.35415L15.1394 9.35408L15.1395 9.35402L15.1396 9.35396L15.1396 9.3539L15.1397 9.35384L15.1398 9.35379L15.1399 9.35373L15.14 9.35367L15.1401 9.35361L15.1402 9.35355L15.1403 9.35349L15.1404 9.35343L15.1404 9.35337L15.1405 9.35332L15.1406 9.35326L15.1407 9.3532L15.1408 9.35315L15.1409 9.35309L15.141 9.35303L15.1411 9.35298L15.1411 9.35292L15.1412 9.35287L15.1413 9.35281L15.1414 9.35275L15.1415 9.3527L15.1416 9.35265L15.1416 9.35259L15.1417 9.35254L15.1418 9.35248L15.1419 9.35243L15.142 9.35238L15.142 9.35232L15.1421 9.35227L15.1422 9.35222L15.1423 9.35216L15.1424 9.35211L15.1424 9.35206L15.1425 9.35201L15.1426 9.35196L15.1427 9.35191L15.1428 9.35185L15.1428 9.3518L15.1429 9.35175L15.143 9.3517L15.1431 9.35165L15.1431 9.3516L15.1432 9.35155L15.1433 9.3515L15.1434 9.35145L15.1434 9.3514L15.1435 9.35136L15.1436 9.35131L15.1437 9.35126L15.1437 9.35121L15.1438 9.35116L15.1439 9.35111L15.1439 9.35107L15.144 9.35102L15.1441 9.35097L15.1442 9.35092L15.1442 9.35088L15.1443 9.35083L15.1444 9.35079L15.1444 9.35074L15.1445 9.35069L15.1446 9.35065L15.1447 9.3506L15.1447 9.35056L15.1448 9.35051L15.1449 9.35047L15.1449 9.35042L15.145 9.35038L15.1451 9.35034L15.1451 9.35029L15.1452 9.35025L15.1453 9.3502L15.1453 9.35016L15.1454 9.35012L15.1455 9.35008L15.1455 9.35003L15.1456 9.34999L15.1456 9.34995L15.1457 9.34991L15.1458 9.34986L15.1458 9.34982L15.1459 9.34978L15.146 9.34974L15.146 9.3497L15.1461 9.34966L15.1461 9.34962L15.1462 9.34958L15.1463 9.34954L15.1463 9.3495L15.1464 9.34946L15.1464 9.34942L15.1465 9.34938L15.1466 9.34934L15.1466 9.3493L15.1467 9.34926L15.1467 9.34922L15.1468 9.34919L15.1469 9.34915L15.1469 9.34911L15.147 9.34907L15.147 9.34903L15.1471 9.349L15.1471 9.34896L15.1472 9.34892L15.1473 9.34889L15.1473 9.34885L15.1474 9.34881L15.1474 9.34878L15.1475 9.34874L15.1475 9.34871L15.1476 9.34867L15.1476 9.34863L15.1477 9.3486L15.1477 9.34856L15.1478 9.34853L15.1478 9.34849L15.1479 9.34846L15.148 9.34843L15.148 9.34839L15.1481 9.34836L15.1481 9.34832L15.1482 9.34829L15.1482 9.34826L15.1483 9.34822L15.1483 9.34819L15.1484 9.34816L15.1484 9.34813L15.1485 9.34809L15.1485 9.34806L15.1486 9.34803L15.1486 9.348L15.1486 9.34797L15.1487 9.34794L15.1487 9.3479L15.1488 9.34787L15.1488 9.34784L15.1489 9.34781L15.1489 9.34778L15.149 9.34775L15.149 9.34772L15.1491 9.34769L15.1491 9.34766L15.1492 9.34763L15.1492 9.3476L15.1493 9.34757L15.1493 9.34754L15.1493 9.34751L15.1494 9.34748L15.1494 9.34746L15.1495 9.34743L15.1495 9.3474L15.1496 9.34737L15.1496 9.34734L15.1496 9.34731L15.1497 9.34729L15.1497 9.34726L15.1498 9.34723L15.1498 9.34721L15.1498 9.34718L15.1499 9.34715L15.1499 9.34712L15.15 9.3471L15.15 9.34707L15.15 9.34705L15.1501 9.34702L15.1501 9.34699L15.1502 9.34697L15.1502 9.34694L15.1502 9.34692L15.1503 9.34689L15.1503 9.34687L15.1504 9.34684L15.1504 9.34682L15.1504 9.34679L15.1505 9.34677L15.1505 9.34674L15.1505 9.34672L15.1506 9.3467L15.1506 9.34667L15.1506 9.34665L15.1507 9.34663L15.1507 9.3466L15.1508 9.34658L15.1508 9.34656L15.1508 9.34653L15.1509 9.34651L15.1509 9.34649L15.1509 9.34647L15.151 9.34644L15.151 9.34642L15.151 9.3464L15.1511 9.34638L15.1511 9.34636L15.1511 9.34633L15.1512 9.34631L15.1512 9.34629L15.1512 9.34627L15.1513 9.34625L15.1513 9.34623L15.1513 9.34621L15.1513 9.34619L15.1514 9.34617L15.1514 9.34615L15.1514 9.34613L15.1515 9.34611L15.1515 9.34609L15.1515 9.34607L15.1516 9.34605L15.1516 9.34603L15.1516 9.34601L15.1516 9.34599L15.1517 9.34597L15.1517 9.34595L15.1517 9.34594L15.1518 9.34592L15.1518 9.3459L15.1518 9.34588L15.1518 9.34586L15.1519 9.34585L15.1519 9.34583L15.1519 9.34581L15.1519 9.34579L15.152 9.34578L15.152 9.34576L15.152 9.34574L15.1521 9.34572L15.1521 9.34571L15.1521 9.34569L15.1521 9.34567L15.1522 9.34566L15.1522 9.34564L15.1522 9.34562L15.1522 9.34561L15.1522 9.34559L15.1523 9.34558L15.1523 9.34556L15.1523 9.34555L15.1523 9.34553L15.1524 9.34552L15.1524 9.3455L15.1524 9.34549L15.1524 9.34547L15.1525 9.34546L15.1525 9.34544L15.1525 9.34543L15.1525 9.34541L15.1525 9.3454L15.1526 9.34538L15.1526 9.34537L15.1526 9.34536L15.1526 9.34534L15.1527 9.34533L15.1527 9.34531L15.1527 9.3453L15.1527 9.34529L15.1527 9.34527L15.1528 9.34526L15.1528 9.34525L15.1528 9.34524L15.1528 9.34522L15.1528 9.34521L15.1528 9.3452L15.1529 9.34518L15.1529 9.34517L15.1529 9.34516L15.1529 9.34515L15.1529 9.34514L15.153 9.34512L15.153 9.34511L15.153 9.3451L15.153 9.34509L15.153 9.34508L15.153 9.34507L15.1531 9.34506L15.1531 9.34504L15.1531 9.34503L15.1531 9.34502L15.1531 9.34501L15.1531 9.345L15.1532 9.34499L15.1532 9.34498L15.1532 9.34497L15.1532 9.34496L15.1532 9.34495L15.1532 9.34494L15.1533 9.34493L15.1533 9.34492L15.1533 9.34491L15.1533 9.3449L15.1533 9.34489L15.1533 9.34488L15.1533 9.34487L15.1534 9.34486L15.1534 9.34485L15.1534 9.34484L15.1534 9.34484L15.1534 9.34483L15.1534 9.34482L15.1534 9.34481L15.1535 9.3448L15.1535 9.34479L15.1535 9.34478L15.1535 9.34478L15.1535 9.34477L15.1535 9.34476L15.1535 9.34474L15.1536 9.34473L15.1536 9.34471L15.1536 9.3447L15.1536 9.34469L15.1536 9.34468L15.1537 9.34466L15.1537 9.34465L15.1537 9.34463L15.1537 9.34462L15.1537 9.34461L15.1538 9.3446L15.1538 9.34458L15.1538 9.34457L15.1538 9.34456L15.1538 9.34455L15.1538 9.34454L15.1539 9.34453L15.1539 9.34452L15.1539 9.34451L15.1539 9.3445L15.1539 9.34449L15.1539 9.34448L15.154 9.34447L15.154 9.34446L15.154 9.34445L15.154 9.34445L15.154 9.34443L15.154 9.34442L15.154 9.34441L15.1541 9.3444L15.1541 9.34439L15.1541 9.34438L15.1541 9.34438L15.1541 9.34437L15.1541 9.34436L15.1541 9.34435L15.1541 9.34434L15.1542 9.34433L15.1542 9.34432L15.1542 9.34431L15.1542 9.34431L15.1542 9.3443L15.1542 9.34428C17.0466 8.09633 19.0742 7.16766 21.1472 6.56757C23.2188 5.96787 25.3423 5.6944 27.4698 5.71047C31.6989 5.75405 35.8647 7.01439 39.4233 9.39212L39.4259 9.39384C40.8738 10.3548 42.2518 11.534 43.4683 12.8688Z" fill="#D9D9D9" stroke="#1D1D1D" stroke-width="2"/>
</svg>
