<svg width="40" height="40" viewBox="0 0 40 40" fill="none" xmlns="http://www.w3.org/2000/svg">
<path d="M29.7266 24.5078L34.2812 17.6953C34.8437 16.8594 34.625 15.7266 33.789 15.1641C33.4844 14.9609 33.1328 14.8516 32.7656 14.8516H22.0391L23.4453 1.92969C23.4922 1.125 23.0156 0.390626 22.2578 0.109376C21.4766 -0.171874 20.5937 0.109376 20.125 0.804688L14.4375 9.21875L29.7266 24.5078Z" fill="#D9D9D9"/>
<path d="M10.2969 15.3984L5.74219 22.2109C5.17969 23.0469 5.39844 24.1797 6.23437 24.7422C6.53906 24.9453 6.89062 25.0547 7.25781 25.0547H17.9922L16.5859 37.9766C16.4922 38.8125 16.9844 39.6016 17.7734 39.8906C17.9687 39.9609 18.1797 40 18.3906 40C19 40 19.5625 39.7031 19.9062 39.1953L25.5937 30.6875L10.2969 15.3984Z" fill="#D9D9D9"/>
<path d="M35.8828 33.2422L6.72657 4.08594C6.01563 3.375 4.85156 3.375 4.14063 4.08594C3.42969 4.79688 3.42969 5.96094 4.14063 6.67188L33.2969 35.8281C34.0078 36.5391 35.1563 36.5469 35.875 35.836L35.8828 35.8281C36.5782 35.1172 36.5547 33.9688 35.8828 33.2422Z" fill="#D9D9D9"/>
</svg>
