<svg xmlns="http://www.w3.org/2000/svg" version="1.1" xmlns:xlink="http://www.w3.org/1999/xlink" xmlns:svgjs="http://svgjs.com/svgjs" width="1000" height="1000"><rect width="1000" height="1000" rx="200" ry="200" fill="#1d1d1d"></rect><g transform="matrix(0.7121057985757884,0,0,0.7121057985757884,251.50103567408647,149.9995167791419)"><svg xmlns="http://www.w3.org/2000/svg" version="1.1" xmlns:xlink="http://www.w3.org/1999/xlink" xmlns:svgjs="http://svgjs.com/svgjs" width="697.93" height="983"><svg id="Livello_2" data-name="Livello 2" xmlns="http://www.w3.org/2000/svg" viewBox="0 0 697.93 983"><defs><style>.cls-1{fill:#ccc;}</style></defs><title>logo</title><path class="cls-1" d="M424.14,1230.25a24.86,24.86,0,0,1-21.58-26.45c5-71.58,8.14-147.66,8.44-227.8.37-96.54-3.37-187.32-9.74-271.56a24.78,24.78,0,0,1,.47-7C406.45,675.27,419.63,631.9,458,597c43.64-39.7,92.83-45.7,109-46.93.64,0,1.28-.07,1.92-.07H678.77a24.9,24.9,0,0,0,16.29-6A977.64,977.64,0,0,0,781,460c51.33-56.79,72.9-94.31,145.2-178,8.13-9.42,15.65-18,22.32-25.45a25,25,0,0,1,37.87.74l107,129.88c13.4,16.27,1.83,40.8-19.25,40.8h0a24.92,24.92,0,0,0-18.57,8.29L833.94,683.46a24.93,24.93,0,0,0-1.09,32l195.54,250.48a25,25,0,0,1,2.85,4.6c7.88,16.6,38.72,89.79,2.76,161.46-34.93,69.6-118.66,109.48-205.76,94.57a25.07,25.07,0,0,1-13.69-7.11l-52-52.79q-13-13.22-26-26.42c-14.51-14.75-5.79-39.67,14.73-42.25,26.76-3.36,57.57-11.69,87.68-30q7.53-4.59,14.21-9.46a24.89,24.89,0,0,0,7.2-31.86c-18-33.8-38.68-69.24-62.41-105.68A1400.94,1400.94,0,0,0,671,754.73a24.9,24.9,0,0,0-35-2.24,369.93,369.93,0,0,0-78,95.38,24.9,24.9,0,0,0-.65,23.3,178.12,178.12,0,0,0,49.93,61.49,24.9,24.9,0,0,1,7.88,28.48A1284.54,1284.54,0,0,1,548,1109c-21.33,40-43.33,76.1-64.9,108.42a24.81,24.81,0,0,1-14.71,10.35,122.34,122.34,0,0,1-21.18,3.23A121,121,0,0,1,424.14,1230.25Z" transform="translate(-401.19 -248.24)"></path></svg></svg></g></svg>